<svg version="1.0" xmlns="http://www.w3.org/2000/svg"
     width="50" height="50" viewBox="0 0 512.000000 512.000000"
     preserveAspectRatio="xMidYMid meet">
    <g transform="translate(0.000000,512.000000) scale(0.100000,-0.100000)"
       fill="#ffffff" stroke="none">
        <path d="M2451 5104 c-168 -45 -292 -183 -322 -357 -22 -134 27 -276 131 -378
l60 -59 0 -95 c0 -108 3 -105 -84 -75 -151 52 -252 128 -381 289 -212 265
-371 337 -830 376 -350 29 -527 62 -725 135 -47 17 -102 32 -123 32 -43 0 -85
-25 -104 -63 -16 -30 -17 -180 -2 -251 26 -126 112 -249 222 -318 l56 -35 1
-65 c1 -87 23 -186 55 -250 31 -61 101 -140 163 -182 35 -24 42 -34 42 -62 0
-64 22 -152 57 -226 54 -113 156 -210 293 -278 58 -28 136 -59 173 -68 53 -13
67 -20 62 -32 -16 -43 -26 -116 -27 -193 -1 -230 123 -410 362 -528 41 -21
157 -73 258 -116 l183 -79 -38 -22 c-98 -58 -185 -118 -232 -160 -42 -38 -51
-52 -51 -80 0 -21 8 -42 20 -54 32 -32 72 -25 132 24 98 80 312 206 350 206
23 0 208 -84 200 -91 -4 -4 -57 -29 -117 -56 -155 -68 -235 -115 -300 -175
-126 -115 -136 -230 -32 -344 85 -93 160 -123 761 -299 582 -171 645 -196 743
-291 201 -197 143 -506 -114 -605 -32 -12 -82 -24 -110 -27 -69 -6 -69 7 -3
107 68 105 92 164 98 241 8 120 -52 211 -182 271 -33 15 -289 95 -568 178
-629 187 -677 206 -799 319 -89 81 -110 125 -118 232 -7 103 -20 124 -77 124
-27 0 -42 -7 -56 -24 -18 -22 -20 -37 -16 -120 3 -84 8 -103 38 -165 43 -85
148 -194 238 -245 34 -19 62 -37 62 -40 -1 -3 -29 -21 -63 -40 -81 -46 -194
-159 -234 -236 -106 -201 -77 -427 76 -587 67 -71 115 -100 224 -138 161 -56
283 -34 328 59 20 40 21 49 10 97 -7 29 -28 79 -48 111 -63 101 -103 185 -103
216 0 75 46 111 203 159 56 18 108 34 115 36 9 4 12 -60 12 -299 0 -356 3
-372 80 -441 73 -66 151 -82 243 -51 57 19 128 93 145 152 8 26 12 137 12 341
l0 302 23 -6 c132 -41 214 -70 243 -87 39 -23 64 -64 64 -105 0 -32 -41 -124
-74 -168 -36 -47 -73 -126 -81 -173 -9 -58 21 -120 74 -150 80 -45 251 -19
387 58 65 38 154 132 188 198 77 151 74 323 -7 476 -40 77 -153 190 -234 236
-34 19 -62 37 -62 40 0 3 31 25 71 50 138 88 235 224 257 360 36 225 -126 469
-434 655 l-58 34 44 19 c267 115 343 149 399 177 178 90 287 213 335 379 21
71 21 219 1 296 -8 30 -14 55 -13 56 1 0 43 13 92 29 213 65 365 182 440 339
33 70 55 158 55 222 0 28 7 38 43 62 61 42 131 121 162 182 32 64 54 163 55
250 l1 65 56 35 c108 69 196 194 222 318 15 71 14 221 -2 251 -19 39 -61 63
-103 63 -22 -1 -88 -19 -149 -40 -105 -38 -284 -83 -388 -97 -63 -8 -89 -34
-85 -82 2 -25 11 -42 29 -56 26 -19 29 -19 125 -3 114 19 301 67 374 96 28 11
53 20 57 20 3 0 3 -31 1 -68 -17 -239 -227 -373 -628 -401 -160 -12 -183 -22
-178 -83 2 -31 10 -46 29 -61 25 -18 33 -19 165 -8 77 7 179 21 229 31 49 11
91 20 93 20 3 0 2 -24 -1 -53 -27 -226 -201 -339 -569 -366 -125 -9 -134 -12
-155 -36 -13 -14 -23 -34 -23 -43 0 -23 26 -59 51 -72 23 -13 236 3 342 26 98
20 96 21 86 -27 -36 -157 -196 -296 -406 -350 -73 -18 -79 -19 -88 -3 -5 10
-37 54 -70 98 -183 246 -518 394 -690 305 -96 -49 -139 -158 -118 -296 6 -37
9 -70 7 -72 -4 -4 -131 15 -167 25 -16 5 -17 26 -15 296 l3 290 71 18 c192 49
361 165 494 340 158 207 305 288 585 320 123 14 151 24 163 59 12 35 -8 86
-38 96 -30 10 -154 -2 -274 -26 -241 -48 -376 -133 -543 -342 -129 -161 -227
-235 -382 -288 -84 -29 -81 -32 -81 76 l0 95 60 59 c104 102 153 244 131 378
-44 258 -294 423 -540 357z m198 -151 c138 -44 222 -195 186 -335 -35 -136
-139 -218 -278 -218 -51 0 -76 6 -126 31 -100 50 -153 137 -154 249 -1 198
184 334 372 273z m-2344 -174 c193 -66 362 -95 705 -124 215 -18 276 -28 380
-60 141 -45 243 -123 360 -276 139 -181 311 -294 527 -349 l43 -11 0 -289 c0
-266 -1 -289 -17 -294 -36 -10 -163 -29 -167 -25 -2 2 1 35 7 72 13 87 -2 177
-40 232 -132 190 -540 62 -767 -241 -34 -44 -65 -88 -71 -98 -9 -16 -15 -15
-88 3 -207 54 -362 182 -400 331 -8 30 -11 56 -6 58 5 2 43 -4 86 -12 101 -21
310 -36 339 -26 26 10 54 47 54 72 0 9 -10 29 -22 43 -22 25 -31 27 -148 35
-257 18 -407 71 -499 176 -44 50 -81 147 -81 211 0 32 2 35 23 29 69 -19 256
-45 348 -48 94 -3 109 -1 128 16 33 30 27 97 -10 116 -10 6 -78 15 -150 20
-403 31 -610 163 -627 402 -2 37 -3 68 -1 68 2 0 45 -14 94 -31z m2345 -1384
l0 -856 -45 -19 c-44 -19 -45 -19 -90 1 l-45 20 0 854 0 855 90 0 90 0 0 -855z
m700 168 c154 -57 305 -196 383 -351 55 -110 71 -179 65 -292 -3 -73 -9 -94
-38 -148 -70 -131 -152 -185 -552 -357 l-227 -97 -110 48 c-61 26 -111 50
-111 53 0 3 78 39 173 80 95 41 237 105 317 144 129 62 153 78 216 141 57 57
73 80 83 119 27 112 -37 194 -205 265 -145 61 -188 115 -214 263 -16 92 -2
145 43 158 42 12 97 4 177 -26z m-1375 7 c22 -25 23 -128 1 -204 -30 -103 -73
-142 -236 -214 -218 -96 -236 -266 -43 -411 89 -66 127 -84 748 -356 297 -130
574 -255 615 -277 383 -209 528 -458 389 -667 -23 -35 -66 -80 -102 -107 -67
-51 -209 -124 -240 -124 -11 0 -76 16 -144 37 l-125 36 104 37 c145 51 204 84
268 149 147 147 80 318 -177 453 -48 26 -365 166 -703 312 -338 147 -661 289
-717 317 -124 60 -205 131 -253 221 -29 54 -35 75 -38 148 -6 113 10 182 65
292 103 206 336 377 514 378 43 0 60 -5 74 -20z m345 -655 c0 -168 -2 -305 -5
-305 -9 0 -332 143 -399 176 -87 44 -147 85 -180 124 -35 43 -22 64 62 102 37
16 87 38 110 49 24 11 68 43 98 71 53 50 56 51 157 68 56 10 114 18 130 19
l27 1 0 -305z m628 286 l112 -18 54 -51 c30 -28 74 -60 98 -71 23 -11 73 -33
110 -49 84 -38 97 -59 62 -102 -33 -39 -93 -80 -180 -124 -67 -33 -390 -176
-399 -176 -3 0 -5 137 -5 305 0 284 1 305 18 305 9 0 68 -9 130 -19z m-344
-1251 l46 -19 0 -270 0 -269 -45 -15 c-40 -14 -50 -14 -90 0 l-45 15 0 269 0
270 43 19 c23 10 43 19 44 19 1 1 22 -8 47 -19z m-284 -300 c0 -168 -3 -210
-13 -210 -22 0 -149 45 -203 73 -62 31 -111 71 -119 97 -16 52 68 128 224 204
52 25 98 46 103 46 4 0 8 -94 8 -210z m593 164 c111 -56 191 -114 212 -154 27
-51 -7 -96 -115 -150 -49 -25 -176 -70 -197 -70 -10 0 -13 42 -13 210 0 136 4
210 10 210 6 0 52 -21 103 -46z m-767 -811 c68 -21 124 -40 124 -43 0 -4 -44
-19 -97 -34 -174 -50 -271 -113 -313 -203 -18 -38 -21 -60 -18 -118 4 -76 30
-141 108 -264 54 -87 53 -95 -12 -88 -331 34 -461 400 -225 630 68 67 231 154
291 156 10 1 74 -16 142 -36z m460 -134 l44 -11 0 -325 0 -325 -29 -29 c-40
-39 -82 -39 -122 0 l-29 29 0 325 0 325 38 10 c50 13 47 13 98 1z"/>
    </g>
</svg>
