<svg width="21" height="20" viewBox="0 0 21 20" fill="none" xmlns="http://www.w3.org/2000/svg">
<rect x="0.5" width="20" height="20" rx="4" fill="#F2F2F2"/>
<path fill-rule="evenodd" clip-rule="evenodd" d="M8.15947 2.68163C8.55987 2.51436 8.9895 2.42822 9.42344 2.42822C9.85738 2.42822 10.287 2.51436 10.6874 2.68163C11.0878 2.84891 11.451 3.094 11.756 3.4027C12.061 3.7114 12.3016 4.07756 12.464 4.47996C12.626 4.8812 12.7069 5.31052 12.7021 5.74316L12.6971 13.1144C12.688 13.6894 12.4531 14.2377 12.0434 14.641C11.6336 15.0444 11.0816 15.2705 10.5066 15.2705C9.93164 15.2705 9.3797 15.0444 8.96992 14.641C8.56013 14.2377 8.32537 13.6894 8.31629 13.1144L8.31613 13.1046L8.31621 6.87214H9.56621V13.099C9.57121 13.3443 9.67186 13.578 9.84679 13.7502C10.0227 13.9234 10.2597 14.0205 10.5066 14.0205C10.7535 14.0205 10.9905 13.9234 11.1665 13.7502C11.3415 13.578 11.4421 13.3442 11.4471 13.0988L11.4522 5.73174C11.4554 5.46325 11.4054 5.19678 11.3049 4.94779C11.2044 4.69879 11.0555 4.47222 10.8668 4.2812C10.6781 4.09019 10.4533 3.93853 10.2055 3.83503C9.95779 3.73152 9.69195 3.67822 9.42344 3.67822C9.15493 3.67822 8.88909 3.73152 8.64133 3.83503C8.39357 3.93853 8.16882 4.09019 7.98011 4.2812C7.7914 4.47222 7.64248 4.69879 7.54199 4.94779C7.44149 5.19678 7.39142 5.46325 7.39468 5.73174L7.39477 5.73933L7.39473 13.1494C7.40764 13.9637 7.73988 14.7404 8.31997 15.3122C8.90108 15.885 9.68425 16.206 10.5002 16.206C11.3161 16.206 12.0993 15.885 12.6804 15.3122C13.2605 14.7404 13.5927 13.9637 13.6057 13.1495V5.60026H14.8557V13.1632C14.8391 14.3074 14.3729 15.3992 13.5579 16.2024C12.7429 17.0057 11.6445 17.456 10.5002 17.456C9.35587 17.456 8.2575 17.0057 7.4425 16.2024C6.62751 15.3992 6.16135 14.3074 6.14479 13.1632L6.14466 13.1542L6.14473 5.74291C6.14001 5.31036 6.22092 4.88113 6.38283 4.47996C6.54524 4.07756 6.7859 3.7114 7.09088 3.4027C7.39585 3.094 7.75907 2.84891 8.15947 2.68163Z" fill="black"/>
</svg>
