<svg version="1.0" xmlns="http://www.w3.org/2000/svg"
     width="30" height="30" viewBox="0 0 512.000000 512.000000"
     preserveAspectRatio="xMidYMid meet">
    <g transform="translate(0.000000,512.000000) scale(0.100000,-0.100000)"
       fill="#000000" stroke="none">
        <path d="M1890 4830 c-435 -61 -800 -343 -960 -743 -64 -159 -89 -299 -90
-494 l0 -112 -37 -6 c-21 -3 -67 -15 -103 -26 -200 -62 -362 -240 -405 -445
-22 -102 -22 -1906 0 -2008 43 -204 196 -373 405 -447 l65 -24 907 -3 c1004
-3 947 -7 988 61 32 52 21 106 -30 152 -22 20 -40 20 -934 25 l-911 5 -55 27
c-71 35 -143 107 -178 178 l-27 55 0 975 0 975 27 55 c35 71 107 143 178 178
l55 27 1295 0 1295 0 55 -27 c71 -35 143 -107 178 -178 l27 -55 3 -271 3 -271
-72 -12 c-283 -51 -546 -223 -705 -463 -241 -362 -241 -834 0 -1196 157 -237
405 -401 701 -463 85 -18 323 -16 412 4 430 97 742 409 840 840 22 98 22 336
0 434 -99 438 -436 767 -864 843 l-71 13 -4 281 c-4 260 -6 286 -27 346 -72
207 -243 362 -447 405 -57 12 -213 15 -916 15 l-848 0 0 149 c0 175 17 246 78
326 154 203 439 221 613 38 20 -21 56 -72 79 -113 70 -126 142 -186 262 -216
88 -23 164 -13 254 31 85 42 135 93 177 184 27 58 31 76 31 151 0 103 -19 155
-97 273 -176 263 -449 447 -764 512 -94 20 -293 27 -383 15z m317 -245 c198
-38 350 -115 492 -249 118 -113 201 -239 201 -305 0 -71 -69 -141 -138 -141
-55 0 -100 28 -129 79 -112 201 -223 301 -397 358 -113 36 -267 38 -376 5
-203 -63 -362 -218 -427 -416 -23 -72 -27 -101 -31 -258 l-4 -178 -160 0 -161
0 6 163 c5 177 26 273 87 405 85 182 260 361 445 454 60 31 198 75 269 87 83
14 238 12 323 -4z m1777 -2414 c142 -42 247 -103 355 -205 110 -105 176 -211
227 -366 26 -78 28 -97 28 -240 0 -143 -2 -162 -28 -240 -51 -155 -117 -261
-227 -366 -107 -101 -192 -151 -339 -200 -78 -26 -97 -28 -240 -28 -143 0
-162 2 -240 28 -147 49 -232 99 -339 200 -80 76 -142 163 -185 258 -59 130
-70 187 -70 348 0 112 4 160 18 210 93 323 352 562 673 620 81 15 289 4 367
-19z"/>
        <path d="M4215 1789 c-11 -6 -149 -140 -307 -297 l-288 -287 -152 152 c-155
153 -182 172 -234 159 -34 -9 -81 -56 -90 -90 -13 -54 5 -78 214 -288 211
-210 233 -227 290 -213 30 7 693 660 718 707 19 37 18 67 -6 105 -32 54 -98
77 -145 52z"/>
        <path d="M1968 2824 c-196 -47 -345 -207 -379 -407 -37 -224 100 -461 312
-538 l59 -22 0 -301 c0 -281 1 -303 20 -333 21 -34 66 -63 100 -63 34 0 79 29
100 63 19 30 20 52 20 333 l0 301 59 22 c212 77 349 314 312 538 -49 286 -327
474 -603 407z m212 -245 c55 -25 105 -71 133 -124 16 -30 22 -58 22 -115 0
-64 -4 -82 -27 -122 -16 -25 -45 -60 -65 -77 -126 -104 -305 -68 -391 77 -23
40 -27 58 -27 122 0 57 6 85 22 115 47 88 138 145 233 145 34 0 72 -8 100 -21z"/>
    </g>
</svg>
