<svg width="24" height="24" viewBox="0 0 24 24" fill="none" xmlns="http://www.w3.org/2000/svg">
    <path fill-rule="evenodd" clip-rule="evenodd"
          d="M11.9995 20.5716C16.7334 20.5716 20.571 16.734 20.571 12.0001C20.571 7.26627 16.7334 3.42871 11.9995 3.42871C7.26566 3.42871 3.4281 7.26627 3.4281 12.0001C3.4281 16.734 7.26566 20.5716 11.9995 20.5716ZM12.1761 7.58594C13.9072 7.58594 15.0879 8.55211 15.0879 9.99381C15.0879 10.9011 14.6615 11.5548 13.7698 12.0797C13.0545 12.4938 12.8746 12.7096 12.7996 13.1918C12.6954 13.6573 12.4057 13.9134 11.9418 13.9134C11.4611 13.9134 11.1237 13.6272 11.0412 13.1775L11.0267 13.0709L11.0222 12.9645V12.8825C11.0222 12.215 11.3296 11.7311 11.9873 11.3089L12.1337 11.2193C12.8574 10.7873 13.0554 10.5301 13.0554 10.0465C13.0554 9.54641 12.6703 9.20246 12.0941 9.20246C11.58 9.20246 11.2378 9.44409 11.0654 9.9234C10.9038 10.3371 10.5999 10.5443 10.1781 10.5443C9.64714 10.5443 9.29951 10.2025 9.29951 9.68326C9.29951 9.41377 9.36152 9.17039 9.48817 8.9299C9.8951 8.09061 10.8961 7.58594 12.1761 7.58594ZM11.9535 14.7295C12.5582 14.7295 13.043 15.1918 13.043 15.778C13.043 16.3643 12.5582 16.8265 11.9535 16.8265C11.3536 16.8265 10.8698 16.3633 10.8698 15.778C10.8698 15.1928 11.3536 14.7295 11.9535 14.7295Z"
          fill="#B5CAFF"/>
</svg>
